# Blender v2.76 (sub 0) OBJ File: 'flatscreen.blend'
# www.blender.org
o flatscreen_Cube.001
v -0.861402 0.506463 -1.000000
v -0.861402 0.506463 3.380548
v -1.227879 0.565736 3.380548
v -1.227878 0.565735 -1.000000
v -0.277917 4.114082 -0.999999
v -0.277918 4.114082 3.380548
v -0.644394 4.173355 3.380547
v -0.644394 4.173355 -1.000000
v -0.128754 2.550486 0.821650
v -0.128754 2.550486 1.558899
v -0.226955 1.943321 1.558899
v -0.226955 1.943321 0.821650
v 0.277218 1.861778 0.821650
v 0.277218 1.861778 1.558899
v 0.375419 2.468942 0.821650
v 0.375418 2.468942 1.558899
v 0.069363 0.355997 1.558899
v 0.069363 0.355997 0.821650
v 0.580087 0.355998 0.821650
v 0.580087 0.355998 1.558899
v -0.669862 0.057217 2.625998
v 1.319313 0.057219 2.625998
v 1.319313 0.057219 -0.245449
v -0.669862 0.057217 -0.245450
v -0.669862 0.000243 2.625998
v -0.669862 0.000243 -0.245450
v 1.319313 0.000245 -0.245449
v 1.319313 0.000245 2.625998
v -0.667445 4.030833 -0.826943
v -0.667445 4.030833 3.207490
v -1.204828 0.708257 3.207490
v -1.204827 0.708257 -0.826944
v -0.861402 0.506463 -1.000000
v -0.861402 0.506463 -1.000000
v -0.861402 0.506463 3.380548
v -0.861402 0.506463 3.380548
v -1.227878 0.565735 -1.000000
v -1.227878 0.565735 -1.000000
v -0.277917 4.114082 -0.999999
v -0.277917 4.114082 -0.999999
v -1.227879 0.565736 3.380548
v -1.227879 0.565736 3.380548
v -0.277918 4.114082 3.380548
v -0.277918 4.114082 3.380548
v -0.644394 4.173355 -1.000000
v -0.644394 4.173355 -1.000000
v -0.644394 4.173355 3.380547
v -0.644394 4.173355 3.380547
v -0.128754 2.550486 0.821650
v -0.128754 2.550486 0.821650
v -0.128754 2.550486 1.558899
v -0.128754 2.550486 1.558899
v -0.226955 1.943321 1.558899
v -0.226955 1.943321 1.558899
v -0.226955 1.943321 0.821650
v -0.226955 1.943321 0.821650
v 0.375419 2.468942 0.821650
v 0.375419 2.468942 0.821650
v 0.277218 1.861778 0.821650
v 0.277218 1.861778 1.558899
v 0.375418 2.468942 1.558899
v 0.375418 2.468942 1.558899
v 0.069363 0.355997 1.558899
v 0.069363 0.355997 1.558899
v 0.069363 0.355997 0.821650
v 0.069363 0.355997 0.821650
v 0.580087 0.355998 0.821650
v 0.580087 0.355998 0.821650
v 0.580087 0.355998 1.558899
v 0.580087 0.355998 1.558899
v -0.669862 0.057217 2.625998
v -0.669862 0.057217 2.625998
v 1.319313 0.057219 2.625998
v 1.319313 0.057219 2.625998
v 1.319313 0.057219 -0.245449
v 1.319313 0.057219 -0.245449
v -0.669862 0.057217 -0.245450
v -0.669862 0.057217 -0.245450
v -0.669862 0.000243 -0.245450
v -0.669862 0.000243 2.625998
v 1.319313 0.000245 -0.245449
v 1.319313 0.000245 2.625998
vt 0.074975 0.064046
vt 0.406070 0.064046
vt 0.267589 0.179867
vt 0.406070 0.343526
vt 0.267589 0.226447
vt 0.074975 0.343526
vt 0.213456 0.226447
vt 0.794691 0.407965
vt 0.865003 0.407965
vt 0.794691 0.468512
vt 0.865003 0.614996
vt 0.794691 0.614996
vt 0.794691 0.554449
vt 0.925550 0.468512
vt 0.925550 0.554449
vt 0.865003 0.554449
vt 0.865003 0.468512
vt 0.735714 0.234495
vt 0.733761 0.175901
vt 0.862667 0.084104
vt 0.649777 0.234495
vt 0.522824 0.326292
vt 0.647824 0.175901
vt 0.520870 0.084104
vt 0.520870 0.078245
vt 0.515011 0.084104
vt 0.862667 0.326292
vt 0.862667 0.334104
vt 0.870480 0.084104
vt 0.785009 0.827512
vt 0.964697 0.825559
vt 0.952978 0.884153
vt 0.964697 0.739622
vt 0.785009 0.739622
vt 0.952978 0.681028
vt 0.088823 0.025020
vt 0.393481 0.025020
vt 0.406070 0.035091
vt 0.516964 0.326292
vt 0.074975 0.036350
vt 0.213456 0.179867
vt 0.406070 0.371223
vt 0.393481 0.382553
vt 0.074975 0.372482
vt 0.435025 0.064046
vt 0.447615 0.075377
vt 0.447615 0.332196
vt 0.952978 0.970091
vt 0.763525 0.968137
vt 0.763525 0.684934
vt 0.435025 0.343526
vt 0.862667 0.078245
vt 0.720703 0.400391
vt 0.720703 0.992188
vt 0.007812 0.992188
vt 0.522824 0.334104
vt 0.870480 0.326292
vt 0.763525 0.882200
vt 0.087564 0.382553
vt 0.007812 0.400391
vt 0.047279 0.064046
vt 0.046020 0.343526
vt 0.033430 0.332196
vt 0.033430 0.075377
vn 0.995500 0.095000 0.000000
vn 0.964500 -0.156000 0.212900
vn 0.964500 -0.156000 -0.212900
vn 0.914800 -0.403900 0.000000
vn 0.000000 0.000000 -1.000000
vn -0.000000 0.000000 1.000000
vn 0.159700 0.987200 0.000000
vn 0.987200 -0.159700 0.000000
vn -0.000000 0.963000 0.269600
vn 0.374700 0.927100 0.000000
vn -0.000000 0.963000 -0.269600
vn -0.374700 0.927100 0.000000
vn -1.000000 0.000000 0.000000
vn 1.000000 0.000000 0.000000
vn -0.987200 0.159700 -0.000000
vn 0.980400 0.197200 0.000000
vn -0.159700 -0.987200 0.000000
vn -0.983000 -0.183500 0.000000
s off
f 39/1/1 43/2/1 51/3/1
f 43/2/2 35/4/2 53/5/2
f 33/6/3 39/1/3 56/7/3
f 35/4/4 33/6/4 53/5/4
f 55/8/5 9/9/5 59/10/5
f 10/11/6 54/12/6 14/13/6
f 49/14/7 52/15/7 62/16/7
f 13/10/8 58/17/8 61/16/8
f 69/18/9 63/19/9 71/20/9
f 67/21/10 69/18/10 76/22/10
f 65/23/11 67/21/11 76/22/11
f 63/19/12 65/23/12 78/24/12
f 21/20/13 24/24/13 79/25/13
f 77/24/5 23/22/5 26/26/5
f 75/22/14 22/27/14 82/28/14
f 73/27/6 72/20/6 25/29/6
f 59/30/5 68/31/5 18/32/5
f 20/33/6 14/34/6 64/35/6
f 60/13/8 13/10/8 61/16/8
f 16/16/6 10/11/6 14/13/6
f 29/36/15 30/37/15 48/38/15
f 23/22/5 81/39/5 26/26/5
f 69/18/10 74/27/10 76/22/10
f 33/6/4 56/7/4 53/5/4
f 57/17/7 49/14/7 62/16/7
f 51/3/2 43/2/2 53/5/2
f 45/40/7 7/38/7 40/1/7
f 50/41/1 39/1/1 51/3/1
f 19/31/16 13/30/16 70/33/16
f 42/42/15 31/43/15 38/44/15
f 48/45/15 30/46/15 31/47/15
f 41/42/17 37/44/17 36/4/17
f 17/48/18 11/49/18 66/32/18
f 14/34/6 54/50/6 64/35/6
f 47/45/6 3/51/6 2/4/6
f 13/30/16 60/34/16 70/33/16
f 48/38/15 46/40/15 29/36/15
f 74/27/9 69/18/9 71/20/9
f 9/9/5 15/17/5 59/10/5
f 78/24/11 65/23/11 76/22/11
f 71/20/12 63/19/12 78/24/12
f 80/52/13 21/20/13 79/25/13
f 31/53/15 30/54/15 29/55/15
f 27/56/14 75/22/14 82/28/14
f 28/57/6 73/27/6 25/29/6
f 55/58/5 59/30/5 18/32/5
f 38/44/15 31/43/15 32/59/15
f 47/45/6 2/4/6 44/2/6
f 42/51/15 48/45/15 31/47/15
f 32/60/15 31/53/15 29/55/15
f 11/49/18 12/58/18 66/32/18
f 39/1/3 50/41/3 56/7/3
f 37/44/17 34/6/17 36/4/17
f 5/1/5 1/6/5 8/61/5
f 38/62/15 32/63/15 46/61/15
f 7/38/7 6/2/7 40/1/7
f 8/61/5 1/6/5 4/62/5
f 32/63/15 29/64/15 46/61/15
