# Blender v2.76 (sub 0) OBJ File: ''
# www.blender.org
o folder_Cube.008
v 0.000000 0.198000 1.260000
v 0.000000 0.198000 -1.440000
v 0.000000 0.180000 -1.440000
v 0.000000 0.180000 1.242000
v 3.240000 0.198000 1.260000
v 3.240000 0.198000 -1.440000
v 3.240000 0.180000 -1.440000
v 3.240000 0.180000 1.242000
v -0.000000 -0.180000 1.242000
v -0.000000 -0.180000 -1.440000
v -0.000000 -0.198000 -1.440000
v -0.000000 -0.198000 1.260000
v 3.240000 -0.180000 1.242000
v 3.240000 -0.180000 -1.440000
v 3.240000 -0.198000 -1.440000
v 3.240000 -0.198000 1.260000
v 0.540000 -0.198000 1.260000
v 0.540000 0.198000 1.260000
v 0.540000 0.180000 1.242000
v 0.540000 -0.180000 1.242000
v 0.270000 0.099000 1.260000
v 0.270000 0.098999 1.242000
v 0.227046 0.089195 1.260000
v 0.227046 0.089195 1.242000
v 0.192599 0.061725 1.260000
v 0.192599 0.061725 1.242000
v 0.173482 0.022029 1.260000
v 0.173482 0.022029 1.242000
v 0.173482 -0.022030 1.260000
v 0.173482 -0.022030 1.242000
v 0.192599 -0.061726 1.260000
v 0.192599 -0.061726 1.242000
v 0.227046 -0.089196 1.260000
v 0.227046 -0.089196 1.242000
v 0.270000 -0.099000 1.260000
v 0.270000 -0.099000 1.242000
v 0.312955 -0.089196 1.260000
v 0.312955 -0.089196 1.242000
v 0.347402 -0.061726 1.260000
v 0.347402 -0.061726 1.242000
v 0.366518 -0.022030 1.260000
v 0.366518 -0.022030 1.242000
v 0.366518 0.022029 1.260000
v 0.366518 0.022029 1.242000
v 0.347402 0.061725 1.260000
v 0.347402 0.061725 1.242000
v 0.312955 0.089195 1.260000
v 0.312955 0.089195 1.242000
v 0.270000 0.115830 1.268587
v 0.219744 0.104359 1.268587
v 0.179441 0.072218 1.268587
v 0.157074 0.025774 1.268587
v 0.157074 -0.025775 1.268587
v 0.179441 -0.072219 1.268587
v 0.219744 -0.104360 1.268587
v 0.270000 -0.115830 1.268587
v 0.320257 -0.104360 1.268587
v 0.360560 -0.072219 1.268587
v 0.382926 -0.025775 1.268587
v 0.382926 0.025774 1.268587
v 0.360560 0.072218 1.268587
v 0.320257 0.104359 1.268587
v 0.270000 0.127413 1.260000
v 0.214718 0.114795 1.260000
v 0.170385 0.079440 1.260000
v 0.145782 0.028351 1.260000
v 0.145782 -0.028353 1.260000
v 0.170385 -0.079441 1.260000
v 0.214718 -0.114796 1.260000
v 0.270000 -0.127413 1.260000
v 0.325283 -0.114796 1.260000
v 0.369616 -0.079441 1.260000
v 0.394219 -0.028353 1.260000
v 0.394219 0.028351 1.260000
v 0.369616 0.079440 1.260000
v 0.325283 0.114795 1.260000
v 0.036000 0.180000 1.224000
v 0.036000 0.180000 -1.260000
v 0.036000 -0.180000 -1.260000
v 0.036000 -0.180000 1.224000
v 3.096000 0.180000 1.224000
v 3.096000 0.180000 -1.260000
v 3.096000 -0.180000 -1.260000
v 3.096000 -0.180000 1.224000
v 0.540000 0.198000 1.260000
v 0.540000 0.198000 1.260000
v 3.240000 0.198000 1.260000
v 3.240000 0.198000 1.260000
v 3.240000 0.198000 1.260000
v 3.240000 0.198000 1.260000
v 3.240000 0.198000 -1.440000
v 3.240000 0.198000 -1.440000
v 0.000000 0.198000 -1.440000
v 0.000000 0.198000 -1.440000
v 0.000000 0.198000 1.260000
v 0.000000 0.198000 1.260000
v 0.000000 0.198000 1.260000
v 0.000000 0.198000 1.260000
v 3.240000 0.180000 -1.440000
v 3.240000 0.180000 -1.440000
v 0.000000 0.180000 -1.440000
v 0.000000 0.180000 -1.440000
v 3.240000 0.180000 1.242000
v 3.240000 0.180000 1.242000
v 3.240000 0.180000 1.242000
v 3.240000 0.180000 1.242000
v 0.540000 0.180000 1.242000
v 0.540000 0.180000 1.242000
v 0.000000 0.180000 1.242000
v 0.000000 0.180000 1.242000
v 0.000000 0.180000 1.242000
v 0.000000 0.180000 1.242000
v 0.540000 -0.180000 1.242000
v 0.540000 -0.180000 1.242000
v 3.240000 -0.180000 1.242000
v 3.240000 -0.180000 1.242000
v 3.240000 -0.180000 1.242000
v 3.240000 -0.180000 1.242000
v 3.240000 -0.180000 -1.440000
v 3.240000 -0.180000 -1.440000
v -0.000000 -0.180000 -1.440000
v -0.000000 -0.180000 -1.440000
v -0.000000 -0.180000 1.242000
v -0.000000 -0.180000 1.242000
v -0.000000 -0.180000 1.242000
v -0.000000 -0.180000 1.242000
v 3.240000 -0.198000 -1.440000
v 3.240000 -0.198000 -1.440000
v -0.000000 -0.198000 -1.440000
v -0.000000 -0.198000 -1.440000
v 3.240000 -0.198000 1.260000
v 3.240000 -0.198000 1.260000
v 3.240000 -0.198000 1.260000
v 3.240000 -0.198000 1.260000
v 0.540000 -0.198000 1.260000
v 0.540000 -0.198000 1.260000
v -0.000000 -0.198000 1.260000
v -0.000000 -0.198000 1.260000
v -0.000000 -0.198000 1.260000
v -0.000000 -0.198000 1.260000
v 0.270000 0.099000 1.260000
v 0.270000 0.099000 1.260000
v 0.227046 0.089195 1.260000
v 0.227046 0.089195 1.260000
v 0.227046 0.089195 1.242000
v 0.270000 0.098999 1.242000
v 0.192599 0.061725 1.260000
v 0.192599 0.061725 1.260000
v 0.192599 0.061725 1.242000
v 0.173482 0.022029 1.260000
v 0.173482 0.022029 1.260000
v 0.173482 0.022029 1.242000
v 0.173482 -0.022030 1.260000
v 0.173482 -0.022030 1.260000
v 0.173482 -0.022030 1.242000
v 0.192599 -0.061726 1.260000
v 0.192599 -0.061726 1.260000
v 0.192599 -0.061726 1.242000
v 0.227046 -0.089196 1.260000
v 0.227046 -0.089196 1.260000
v 0.227046 -0.089196 1.242000
v 0.270000 -0.099000 1.260000
v 0.270000 -0.099000 1.260000
v 0.270000 -0.099000 1.242000
v 0.312955 -0.089196 1.260000
v 0.312955 -0.089196 1.260000
v 0.312955 -0.089196 1.242000
v 0.347402 -0.061726 1.260000
v 0.347402 -0.061726 1.260000
v 0.347402 -0.061726 1.242000
v 0.366518 -0.022030 1.260000
v 0.366518 -0.022030 1.260000
v 0.366518 -0.022030 1.242000
v 0.366518 0.022029 1.260000
v 0.366518 0.022029 1.260000
v 0.366518 0.022029 1.242000
v 0.347402 0.061725 1.260000
v 0.347402 0.061725 1.260000
v 0.347402 0.061725 1.242000
v 0.312955 0.089195 1.260000
v 0.312955 0.089195 1.260000
v 0.312955 0.089195 1.242000
v 0.270000 0.115830 1.268587
v 0.219744 0.104359 1.268587
v 0.179441 0.072218 1.268587
v 0.157074 0.025774 1.268587
v 0.157074 -0.025775 1.268587
v 0.179441 -0.072219 1.268587
v 0.219744 -0.104360 1.268587
v 0.270000 -0.115830 1.268587
v 0.320257 -0.104360 1.268587
v 0.360560 -0.072219 1.268587
v 0.382926 -0.025775 1.268587
v 0.382926 0.025774 1.268587
v 0.360560 0.072218 1.268587
v 0.320257 0.104359 1.268587
v 3.096000 0.180000 -1.260000
v 3.096000 -0.180000 -1.260000
v 0.036000 -0.180000 -1.260000
v 0.036000 0.180000 -1.260000
v 3.096000 -0.180000 1.224000
v 3.096000 0.180000 1.224000
v 0.036000 0.180000 1.224000
v 0.036000 -0.180000 1.224000
vt 0.882860 0.897507
vt 0.010553 0.897507
vt 0.010553 0.766662
vt 0.293206 0.860189
vt 0.293206 0.393252
vt 0.301354 0.393353
vt 0.016550 0.897272
vt 0.016806 0.155811
vt 0.884496 0.897572
vt 0.128061 0.339781
vt 0.137971 0.164262
vt 0.136339 0.339857
vt 0.960225 0.917077
vt 0.960289 0.925154
vt 0.497454 0.925154
vt 0.019725 0.929196
vt 0.485496 0.929196
vt 0.485395 0.937324
vt 0.010882 0.896356
vt 0.010882 0.028410
vt 0.141728 0.028410
vt 0.431766 0.820496
vt 0.431766 0.353559
vt 0.439914 0.353660
vt 0.010553 0.460644
vt 0.014355 0.024965
vt 0.885712 0.024965
vt 0.572068 0.146623
vt 0.580346 0.146700
vt 0.578728 0.322313
vt 0.491673 0.926084
vt 0.957444 0.926085
vt 0.957343 0.934213
vt 0.485431 0.920188
vt 0.485496 0.928266
vt 0.022660 0.928266
vt 0.713900 0.909547
vt 0.709538 0.905185
vt 0.805493 0.905185
vt 0.806423 0.909547
vt 0.810785 0.905185
vt 0.898016 0.905186
vt 0.897806 0.155150
vt 0.985037 0.155150
vt 0.985037 0.896610
vt 0.989703 0.155080
vt 0.893749 0.155081
vt 0.893750 0.896540
vt 0.708998 0.017582
vt 0.709013 0.006846
vt 0.696402 0.006771
vt 0.721608 0.017661
vt 0.721624 0.006926
vt 0.734216 0.017740
vt 0.734232 0.007008
vt 0.746822 0.017817
vt 0.746836 0.007089
vt 0.759420 0.017885
vt 0.759433 0.007166
vt 0.772009 0.017939
vt 0.772018 0.007231
vt 0.784581 0.017970
vt 0.784585 0.007280
vt 0.797130 0.017956
vt 0.797126 0.007283
vt 0.809661 0.017906
vt 0.809649 0.007248
vt 0.822176 0.017829
vt 0.822160 0.007181
vt 0.834680 0.017733
vt 0.834661 0.007091
vt 0.847179 0.017627
vt 0.847158 0.006988
vt 0.859674 0.017518
vt 0.872170 0.017409
vt 0.872148 0.006772
vt 0.859653 0.006880
vt 0.989702 0.024232
vt 0.963338 0.079248
vt 0.965714 0.089657
vt 0.920112 0.079249
vt 0.893746 0.024234
vt 0.917737 0.089657
vt 0.956682 0.070902
vt 0.926768 0.070902
vt 0.947063 0.066270
vt 0.936387 0.066270
vt 0.920112 0.100066
vt 0.963339 0.100065
vt 0.956682 0.108412
vt 0.926769 0.108412
vt 0.947064 0.113044
vt 0.936388 0.113044
vt 0.946760 0.113114
vt 0.919809 0.100135
vt 0.917433 0.089727
vt 0.965410 0.089727
vt 0.963035 0.100135
vt 0.956378 0.108482
vt 0.936084 0.113114
vt 0.926465 0.108482
vt 0.985037 0.024304
vt 0.963035 0.079319
vt 0.919809 0.079319
vt 0.897807 0.024304
vt 0.956378 0.070972
vt 0.926465 0.070972
vt 0.946760 0.066340
vt 0.936084 0.066340
vt 0.696388 0.017507
vt 0.987705 0.991178
vt 0.007155 0.991178
vt 0.007155 0.946397
vt 0.987705 0.946397
vt 0.010553 0.025201
vt 0.882860 0.025201
vt 0.301354 0.860291
vt 0.884797 0.025265
vt 0.016851 0.024965
vt 0.136345 0.814216
vt 0.129694 0.164186
vt 0.128067 0.814140
vt 0.489278 0.916973
vt 0.017330 0.937324
vt 0.883189 0.028410
vt 0.883189 0.896356
vt 0.439914 0.820597
vt 0.885712 0.896322
vt 0.014355 0.896322
vt 0.578727 0.796649
vt 0.570449 0.796574
vt 0.570450 0.322237
vt 0.489278 0.934213
vt 0.014484 0.920085
vt 0.801132 0.909547
vt 0.902377 0.909547
vt 0.897806 0.896610
vt 0.989703 0.896540
vn 0.000000 1.000000 0.000000
vn 0.000000 0.000000 -1.000000
vn -0.000000 -1.000000 0.000000
vn -0.000000 -0.707100 0.707100
vn -1.000000 0.000000 0.000000
vn 1.000000 0.000000 0.000000
vn 0.000000 0.707100 0.707100
vn 0.000000 0.000000 1.000000
vn 0.222500 -0.974900 0.000000
vn 0.623500 -0.781800 0.000000
vn 0.901000 -0.433900 0.000000
vn 0.901000 0.433900 0.000000
vn 0.623500 0.781800 0.000000
vn 0.222500 0.974900 0.000000
vn -0.222500 0.974900 0.000000
vn -0.623500 0.781800 0.000000
vn -0.901000 0.433900 0.000000
vn -0.901000 -0.433900 0.000000
vn -0.222500 -0.974900 0.000000
vn -0.623500 -0.781800 0.000000
vn -0.103200 -0.452100 0.886000
vn -0.289100 -0.362500 0.886000
vn -0.417800 -0.201200 0.886000
vn -0.463700 0.000000 0.886000
vn -0.417800 0.201200 0.886000
vn -0.289100 0.362500 0.886000
vn -0.103200 0.452100 0.886000
vn 0.103200 0.452100 0.886000
vn 0.289100 0.362500 0.886000
vn 0.417800 0.201200 0.886000
vn 0.463700 0.000000 0.886000
vn 0.417800 -0.201200 0.886000
vn 0.289100 -0.362500 0.886000
vn 0.103200 -0.452100 0.886000
vn 0.134700 0.590100 0.796000
vn 0.377400 0.473200 0.796000
vn 0.545400 0.262600 0.796000
vn 0.605300 0.000000 0.796000
vn 0.545400 -0.262600 0.796000
vn 0.377400 -0.473200 0.796000
vn 0.134700 -0.590100 0.796000
vn -0.134700 -0.590100 0.796000
vn -0.377400 -0.473200 0.796000
vn -0.545400 -0.262600 0.796000
vn -0.605300 0.000000 0.796000
vn -0.545400 0.262600 0.796000
vn -0.377400 0.473200 0.796000
vn -0.134700 0.590100 0.796000
s off
f 93/1/1 95/2/1 18/3/1
f 100/4/2 101/5/2 94/6/2
f 103/7/3 108/8/3 7/9/3
f 85/10/4 111/11/4 19/12/4
f 2/13/5 102/14/5 110/15/5
f 8/16/6 99/17/6 92/18/6
f 121/19/1 123/20/1 20/21/1
f 128/22/2 129/23/2 122/24/2
f 17/25/3 138/26/3 130/27/3
f 9/28/7 137/29/7 135/30/7
f 124/31/5 10/32/5 11/33/5
f 127/34/6 119/35/6 116/36/6
f 105/37/6 89/38/6 133/39/6
f 98/40/5 112/41/5 125/42/5
f 114/43/2 107/44/2 106/45/2
f 86/46/8 136/47/8 134/48/8
f 143/49/9 145/50/9 146/51/9
f 147/52/10 149/53/10 145/50/10
f 150/54/11 152/55/11 149/53/11
f 153/56/6 155/57/6 152/55/6
f 153/56/12 157/58/12 32/59/12
f 159/60/13 161/61/13 32/59/13
f 162/62/14 164/63/14 161/61/14
f 162/62/15 166/64/15 38/65/15
f 168/66/16 170/67/16 38/65/16
f 171/68/17 173/69/17 170/67/17
f 174/70/5 176/71/5 173/69/5
f 177/72/18 179/73/18 176/71/18
f 180/74/19 141/75/19 146/76/19
f 180/74/20 182/77/20 179/73/20
f 97/78/8 144/79/8 142/80/8
f 160/81/8 140/82/8 163/83/8
f 97/78/8 148/84/8 144/79/8
f 156/85/8 140/82/8 160/81/8
f 97/78/8 151/86/8 148/84/8
f 154/87/8 140/82/8 156/85/8
f 97/78/8 140/82/8 151/86/8
f 165/88/8 163/83/8 136/47/8
f 151/86/8 140/82/8 154/87/8
f 86/46/8 142/80/8 181/89/8
f 86/46/8 181/89/8 178/90/8
f 169/91/8 165/88/8 136/47/8
f 86/46/8 178/90/8 175/92/8
f 172/93/8 169/91/8 136/47/8
f 86/46/8 175/92/8 136/47/8
f 163/83/8 140/82/8 136/47/8
f 175/92/8 172/93/8 136/47/8
f 97/78/8 142/80/8 86/46/8
f 44/94/2 107/44/2 114/43/2
f 167/95/2 114/43/2 36/96/2
f 22/97/2 107/44/2 48/98/2
f 48/98/2 107/44/2 46/99/2
f 46/99/2 107/44/2 44/94/2
f 42/100/2 44/94/2 114/43/2
f 40/101/2 42/100/2 114/43/2
f 109/102/2 22/97/2 24/103/2
f 114/43/2 167/95/2 40/101/2
f 34/104/2 36/96/2 126/105/2
f 109/102/2 24/103/2 26/106/2
f 158/107/2 34/104/2 126/105/2
f 109/102/2 26/106/2 28/108/2
f 30/109/2 158/107/2 126/105/2
f 109/102/2 28/108/2 126/105/2
f 36/96/2 114/43/2 126/105/2
f 28/108/2 30/109/2 126/105/2
f 109/102/2 107/44/2 22/97/2
f 196/74/21 183/75/21 21/75/21
f 45/72/22 195/72/22 196/74/22
f 43/70/23 194/70/23 195/72/23
f 193/68/24 194/70/24 43/70/24
f 192/66/25 193/68/25 41/68/25
f 37/64/26 191/64/26 192/66/26
f 190/62/27 191/64/27 37/64/27
f 33/60/28 189/60/28 190/62/28
f 31/58/29 188/58/29 189/60/29
f 29/56/30 187/56/30 188/58/30
f 186/54/31 187/56/31 29/56/31
f 185/52/32 186/54/32 27/54/32
f 184/49/33 185/52/33 25/52/33
f 21/110/34 183/110/34 184/49/34
f 76/74/35 63/75/35 49/75/35
f 75/72/36 76/74/36 62/74/36
f 60/70/37 74/70/37 75/72/37
f 59/68/38 73/68/38 74/70/38
f 58/66/39 72/66/39 73/68/39
f 57/64/40 71/64/40 72/66/40
f 70/62/41 71/64/41 57/64/41
f 55/60/42 69/60/42 70/62/42
f 68/58/43 69/60/43 55/60/43
f 67/56/44 68/58/44 54/58/44
f 66/54/45 67/56/45 53/56/45
f 65/52/46 66/54/46 52/54/46
f 50/49/47 64/49/47 65/52/47
f 49/110/48 63/110/48 64/49/48
f 83/111/2 199/112/2 200/113/2
f 202/111/8 203/112/8 204/113/8
f 78/112/5 79/113/5 80/114/5
f 198/112/6 197/113/6 81/114/6
f 18/3/1 88/115/1 91/116/1
f 91/116/1 93/1/1 18/3/1
f 6/117/2 100/4/2 94/6/2
f 3/118/3 7/9/3 108/8/3
f 108/8/3 4/119/3 3/118/3
f 19/12/4 104/120/4 85/10/4
f 85/10/4 96/121/4 111/11/4
f 104/120/4 87/122/4 85/10/4
f 1/123/5 2/13/5 110/15/5
f 5/124/6 8/16/6 92/18/6
f 20/21/1 13/125/1 120/126/1
f 120/126/1 121/19/1 20/21/1
f 14/127/2 128/22/2 122/24/2
f 130/27/3 15/128/3 17/25/3
f 131/129/3 17/25/3 15/128/3
f 135/30/7 16/130/7 115/131/7
f 113/132/7 9/28/7 135/30/7
f 135/30/7 115/131/7 113/132/7
f 139/133/5 124/31/5 11/33/5
f 132/134/6 127/34/6 116/36/6
f 117/135/6 105/37/6 133/39/6
f 12/136/5 98/40/5 125/42/5
f 118/137/2 114/43/2 106/45/2
f 90/138/8 86/46/8 134/48/8
f 141/110/9 143/49/9 146/51/9
f 143/49/10 147/52/10 145/50/10
f 147/52/11 150/54/11 149/53/11
f 150/54/6 153/56/6 152/55/6
f 155/57/12 153/56/12 32/59/12
f 157/58/13 159/60/13 32/59/13
f 159/60/14 162/62/14 161/61/14
f 164/63/15 162/62/15 38/65/15
f 166/64/16 168/66/16 38/65/16
f 168/66/17 171/68/17 170/67/17
f 171/68/5 174/70/5 173/69/5
f 174/70/18 177/72/18 176/71/18
f 182/77/19 180/74/19 146/76/19
f 177/72/20 180/74/20 179/73/20
f 47/74/21 196/74/21 21/75/21
f 47/74/22 45/72/22 196/74/22
f 45/72/23 43/70/23 195/72/23
f 41/68/24 193/68/24 43/70/24
f 39/66/25 192/66/25 41/68/25
f 39/66/26 37/64/26 192/66/26
f 35/62/27 190/62/27 37/64/27
f 35/62/28 33/60/28 190/62/28
f 33/60/29 31/58/29 189/60/29
f 31/58/30 29/56/30 188/58/30
f 27/54/31 186/54/31 29/56/31
f 25/52/32 185/52/32 27/54/32
f 23/49/33 184/49/33 25/52/33
f 23/49/34 21/110/34 184/49/34
f 62/74/35 76/74/35 49/75/35
f 61/72/36 75/72/36 62/74/36
f 61/72/37 60/70/37 75/72/37
f 60/70/38 59/68/38 74/70/38
f 59/68/39 58/66/39 73/68/39
f 58/66/40 57/64/40 72/66/40
f 56/62/41 70/62/41 57/64/41
f 56/62/42 55/60/42 70/62/42
f 54/58/43 68/58/43 55/60/43
f 53/56/44 67/56/44 54/58/44
f 52/54/45 66/54/45 53/56/45
f 51/52/46 65/52/46 52/54/46
f 51/52/47 50/49/47 65/52/47
f 50/49/48 49/110/48 64/49/48
f 82/114/2 83/111/2 200/113/2
f 84/114/8 202/111/8 204/113/8
f 77/111/5 78/112/5 80/114/5
f 201/111/6 198/112/6 81/114/6
