# Blender v2.76 (sub 0) OBJ File: 'separator.blend'
# www.blender.org
o seperator_Cube.011
v -0.500000 0.500000 0.000000
v -0.500000 0.500000 -20.000000
v 0.500000 0.500000 -20.000000
v 0.500000 0.500000 0.000000
v -0.500000 15.500000 0.000000
v -0.500000 15.500000 -20.000000
v 0.500000 15.500000 -20.000000
v 0.500000 15.500000 0.000000
v -1.000000 0.000000 -1.000000
v -1.000000 0.000000 -1.500000
v 1.000000 0.000000 -1.500000
v 1.000000 0.000000 -1.000000
v -0.600000 0.500000 -1.000000
v -0.600000 0.500000 -1.500000
v 0.600000 0.500000 -1.500000
v 0.600000 0.500000 -1.000000
v -1.000000 0.000000 -18.500000
v -1.000000 0.000000 -19.000000
v 1.000000 0.000000 -19.000000
v 1.000000 0.000000 -18.500000
v -0.600000 0.500000 -18.500000
v -0.600000 0.500000 -19.000000
v 0.600000 0.500000 -19.000000
v 0.600000 0.500000 -18.500000
v -0.500000 1.000000 -0.500000
v -0.500000 1.000000 -19.500000
v -0.500000 15.000000 -0.500000
v -0.500000 15.000000 -19.500000
v -0.600000 1.100000 -0.600000
v -0.600000 1.100000 -19.400000
v -0.600000 14.900000 -0.600000
v -0.600000 14.900000 -19.400000
v 0.500000 1.000000 -19.500000
v 0.500000 1.000000 -0.500000
v 0.500000 15.000000 -19.500000
v 0.500000 15.000000 -0.500000
v 0.600000 1.100000 -19.400000
v 0.600000 1.100000 -0.600000
v 0.600000 14.900000 -19.400000
v 0.600000 14.900000 -0.600000
v -0.500000 0.500000 0.000000
v -0.500000 0.500000 0.000000
v -0.500000 15.500000 0.000000
v -0.500000 15.500000 0.000000
v -0.500000 15.500000 -20.000000
v -0.500000 15.500000 -20.000000
v -0.500000 0.500000 -20.000000
v -0.500000 0.500000 -20.000000
v 0.500000 15.500000 -20.000000
v 0.500000 15.500000 -20.000000
v 0.500000 0.500000 -20.000000
v 0.500000 0.500000 -20.000000
v 0.500000 15.500000 0.000000
v 0.500000 15.500000 0.000000
v 0.500000 0.500000 0.000000
v 0.500000 0.500000 0.000000
v -1.000000 0.000000 -1.000000
v -0.600000 0.500000 -1.000000
v -0.600000 0.500000 -1.000000
v -0.600000 0.500000 -1.500000
v -0.600000 0.500000 -1.500000
v -1.000000 0.000000 -1.500000
v 0.600000 0.500000 -1.500000
v 0.600000 0.500000 -1.500000
v 1.000000 0.000000 -1.500000
v 0.600000 0.500000 -1.000000
v 0.600000 0.500000 -1.000000
v 1.000000 0.000000 -1.000000
v -1.000000 0.000000 -18.500000
v -0.600000 0.500000 -18.500000
v -0.600000 0.500000 -18.500000
v -0.600000 0.500000 -19.000000
v -0.600000 0.500000 -19.000000
v -1.000000 0.000000 -19.000000
v 0.600000 0.500000 -19.000000
v 0.600000 0.500000 -19.000000
v 1.000000 0.000000 -19.000000
v 0.600000 0.500000 -18.500000
v 0.600000 0.500000 -18.500000
v 1.000000 0.000000 -18.500000
v -0.500000 1.000000 -0.500000
v -0.500000 1.000000 -0.500000
v -0.500000 15.000000 -0.500000
v -0.500000 15.000000 -0.500000
v -0.500000 15.000000 -19.500000
v -0.500000 15.000000 -19.500000
v -0.500000 1.000000 -19.500000
v -0.500000 1.000000 -19.500000
v -0.600000 1.100000 -0.600000
v -0.600000 1.100000 -0.600000
v -0.600000 14.900000 -0.600000
v -0.600000 14.900000 -0.600000
v -0.600000 14.900000 -19.400000
v -0.600000 14.900000 -19.400000
v -0.600000 1.100000 -19.400000
v -0.600000 1.100000 -19.400000
v 0.500000 15.000000 -19.500000
v 0.500000 15.000000 -19.500000
v 0.500000 1.000000 -19.500000
v 0.500000 1.000000 -19.500000
v 0.500000 15.000000 -0.500000
v 0.500000 15.000000 -0.500000
v 0.500000 1.000000 -0.500000
v 0.500000 1.000000 -0.500000
v 0.600000 14.900000 -19.400000
v 0.600000 14.900000 -19.400000
v 0.600000 1.100000 -19.400000
v 0.600000 1.100000 -19.400000
v 0.600000 14.900000 -0.600000
v 0.600000 14.900000 -0.600000
v 0.600000 1.100000 -0.600000
v 0.600000 1.100000 -0.600000
vt 0.002044 0.823714
vt 0.026935 0.798823
vt 0.972817 0.798823
vt 0.879071 0.873787
vt 0.132326 0.873788
vt 0.132326 0.824004
vt 0.997708 0.873496
vt 0.972816 0.898388
vt 0.026934 0.898388
vt 0.879071 0.873687
vt 0.132326 0.873687
vt 0.132326 0.823903
vt 0.997708 0.823713
vt 0.002044 0.873497
vt 0.997708 0.824111
vt 0.997708 0.873895
vt 0.002044 0.873895
vt 0.470278 0.970773
vt 0.447544 0.970773
vt 0.447544 0.953021
vt 0.512883 0.970773
vt 0.527084 0.988525
vt 0.456076 0.988525
vt 0.512883 0.953021
vt 0.535616 0.953021
vt 0.535616 0.970773
vt 0.470278 0.953021
vt 0.456076 0.935269
vt 0.527084 0.935269
vt 0.469920 0.970817
vt 0.447186 0.970817
vt 0.447186 0.953065
vt 0.512525 0.970817
vt 0.526727 0.988569
vt 0.455718 0.988569
vt 0.512525 0.953065
vt 0.535259 0.953065
vt 0.535259 0.970817
vt 0.469920 0.953065
vt 0.455718 0.935313
vt 0.526727 0.935313
vt 0.019651 0.743526
vt 0.024618 0.726740
vt 0.981328 0.726623
vt 0.157218 0.799112
vt 0.854180 0.799114
vt 0.972817 0.898786
vt 0.026934 0.898785
vt 0.854180 0.898578
vt 0.157217 0.898578
vt 0.981243 0.024357
vt 0.993674 0.731639
vt 0.986210 0.007570
vt 0.024532 0.024473
vt 0.012186 0.019457
vt 0.986211 0.007188
vt 0.981243 0.023974
vt 0.024532 0.024091
vt 0.157218 0.799011
vt 0.854181 0.799013
vt 0.002044 0.824112
vt 0.026935 0.799220
vt 0.972818 0.799221
vt 0.854179 0.898679
vt 0.157217 0.898679
vt 0.024618 0.726358
vt 0.012186 0.019075
vt 0.019651 0.743144
vt 0.981329 0.726240
vt 0.993675 0.731256
vt 0.879071 0.824004
vt 0.879071 0.823904
vt 0.993280 0.743526
vt 0.993651 0.015582
vt 0.012580 0.007570
vt 0.012210 0.735514
vt 0.012580 0.007188
vt 0.012210 0.735132
vt 0.993281 0.743143
vt 0.993651 0.015200
vn -1.000000 0.000000 0.000000
vn 0.000000 0.000000 -1.000000
vn 1.000000 0.000000 0.000000
vn 0.000000 0.000000 1.000000
vn 0.000000 -1.000000 0.000000
vn 0.000000 1.000000 0.000000
vn -0.780800 0.624700 0.000000
vn 0.780800 0.624700 0.000000
vn -0.707100 -0.707100 0.000000
vn -0.707100 0.000000 -0.707100
vn -0.707100 0.707100 0.000000
vn -0.707100 0.000000 0.707100
vn 0.707100 -0.707100 0.000000
vn 0.707100 0.000000 0.707100
vn 0.707100 0.707100 0.000000
vn 0.707100 0.000000 -0.707100
s 1
f 42/1/1 81/2/1 87/3/1
f 50/4/2 51/5/2 47/6/2
f 3/7/3 99/8/3 103/9/3
f 43/10/4 41/11/4 55/12/4
f 2/13/5 52/7/5 56/14/5
f 49/15/6 45/16/6 44/17/6
f 61/18/7 62/19/7 9/20/7
f 64/21/2 65/22/2 10/23/2
f 66/24/8 68/25/8 11/26/8
f 58/27/4 57/28/4 12/29/4
f 63/21/6 60/18/6 59/27/6
f 73/30/7 74/31/7 17/32/7
f 76/33/2 77/34/2 18/35/2
f 78/36/8 80/37/8 19/38/8
f 70/39/4 69/40/4 20/41/4
f 75/33/6 72/30/6 71/39/6
f 82/42/9 90/43/9 96/44/9
f 48/6/1 87/45/1 85/46/1
f 6/16/1 85/47/1 83/48/1
f 5/10/1 83/49/1 81/50/1
f 94/51/1 95/44/1 29/43/1
f 88/52/10 30/44/10 32/51/10
f 86/53/11 93/51/11 92/54/11
f 84/55/12 91/54/12 89/43/12
f 100/56/13 108/57/13 112/58/13
f 4/12/3 103/59/3 101/60/3
f 8/61/3 101/62/3 97/63/3
f 7/4/3 97/64/3 99/65/3
f 110/66/3 111/58/3 37/57/3
f 104/67/14 38/58/14 40/66/14
f 102/68/15 109/66/15 106/69/15
f 98/70/16 105/69/16 107/57/16
f 48/13/1 42/1/1 87/3/1
f 46/71/2 50/4/2 47/6/2
f 4/14/3 3/7/3 103/9/3
f 54/72/4 43/10/4 55/12/4
f 1/1/5 2/13/5 56/14/5
f 53/61/6 49/15/6 44/17/6
f 13/27/7 61/18/7 9/20/7
f 14/18/2 64/21/2 10/23/2
f 15/21/8 66/24/8 11/26/8
f 67/24/4 58/27/4 12/29/4
f 16/24/6 63/21/6 59/27/6
f 21/39/7 73/30/7 17/32/7
f 22/30/2 76/33/2 18/35/2
f 23/33/8 78/36/8 19/38/8
f 79/36/4 70/39/4 20/41/4
f 24/36/6 75/33/6 71/39/6
f 26/73/9 82/42/9 96/44/9
f 6/71/1 48/6/1 85/46/1
f 5/17/1 6/16/1 83/48/1
f 42/11/1 5/10/1 81/50/1
f 31/54/1 94/51/1 29/43/1
f 28/74/10 88/52/10 32/51/10
f 27/75/11 86/53/11 92/54/11
f 25/76/12 84/55/12 89/43/12
f 34/77/13 100/56/13 112/58/13
f 8/72/3 4/12/3 101/60/3
f 7/15/3 8/61/3 97/63/3
f 3/5/3 7/4/3 99/65/3
f 39/69/3 110/66/3 37/57/3
f 36/78/14 104/67/14 40/66/14
f 35/79/15 102/68/15 106/69/15
f 33/80/16 98/70/16 107/57/16
