# Blender v2.76 (sub 0) OBJ File: ''
# www.blender.org
mtllib table.mtl
o table_Torus
v 0.089998 7.138889 -8.740001
v 0.089998 7.138889 -8.510000
v 7.909999 7.138889 -8.510001
v 7.909999 7.138889 -8.740002
v 0.089998 6.448889 -8.740001
v 0.089998 6.448889 -8.510000
v 7.909999 6.448889 -8.510001
v 7.909999 6.448889 -8.740002
v -0.140002 6.448889 -8.740001
v 0.089999 6.448889 -8.740000
v 0.090001 6.448889 8.739999
v -0.140001 6.448889 8.739999
v -0.140002 7.138889 -8.740001
v 0.089999 7.138889 -8.740000
v 0.090001 7.138889 8.739999
v -0.140001 7.138889 8.739999
v 0.089999 0.038890 -8.510000
v 0.549999 0.038890 -8.510001
v 0.549999 0.038890 -8.050001
v 0.089999 0.038890 -8.050001
v 0.089999 7.138889 -8.510000
v 0.549999 7.138889 -8.510001
v 0.549999 7.138889 -8.050001
v 0.089999 7.138889 -8.050001
v 0.090001 7.138889 8.509999
v 0.550000 7.138889 8.509999
v 0.550000 7.138889 8.049999
v 0.090001 7.138889 8.049999
v 0.090001 0.038890 8.509999
v 0.550000 0.038890 8.509999
v 0.550000 0.038890 8.049999
v 0.090001 0.038890 8.049999
v 7.450000 0.038890 8.049999
v 7.910000 0.038890 8.049999
v 7.910000 0.038890 8.509999
v 7.450000 0.038890 8.509999
v 7.450000 7.138889 8.049999
v 7.910000 7.138889 8.049999
v 7.910000 7.138889 8.509999
v 7.450000 7.138889 8.509999
v 7.449999 7.138889 -8.050001
v 7.909999 7.138889 -8.050001
v 7.909999 7.138889 -8.510001
v 7.449999 7.138889 -8.510001
v 7.449999 0.038890 -8.050001
v 7.909999 0.038890 -8.050001
v 7.909999 0.038890 -8.510001
v 7.449999 0.038890 -8.510001
v 7.910000 7.138889 8.739998
v 8.139999 7.138889 8.740000
v 8.139999 7.138889 -8.740001
v 7.909998 7.138889 -8.740001
v 7.910000 6.448889 8.739998
v 8.139999 6.448889 8.740000
v 8.139999 6.448889 -8.740001
v 7.909998 6.448889 -8.740001
v -0.600001 7.138889 -9.200001
v 8.599999 7.138889 -9.200001
v 8.600000 7.138889 9.199999
v -0.599999 7.138889 9.199999
v -0.600001 7.398890 -9.200001
v 8.599999 7.398890 -9.200001
v 8.600000 7.398890 9.199999
v -0.599999 7.398890 9.199999
v 0.089999 7.138889 8.509998
v 0.089999 7.138889 8.740000
v 7.910000 7.138889 8.740000
v 7.910000 7.138889 8.509998
v 0.089999 6.448889 8.509998
v 0.089999 6.448889 8.740000
v 7.910000 6.448889 8.740000
v 7.910000 6.448889 8.509998
vt 0.649779 0.980082
vt 0.325305 0.980082
vt 0.325305 0.970538
vt 0.649779 0.941908
vt 0.649779 0.970538
vt 0.650333 0.999723
vt 0.650333 0.971093
vt 0.974807 0.971093
vt 0.993590 0.756189
vt 0.707290 0.756189
vt 0.707290 0.737102
vt 0.993590 0.775276
vt 0.707290 0.775275
vt 0.993590 0.718015
vt 0.707290 0.718015
vt 0.707290 0.698928
vt 0.993590 0.737102
vt 0.688203 0.756189
vt 0.009822 0.941354
vt 0.009820 0.912724
vt 0.735114 0.912724
vt 0.000278 0.941354
vt 0.000277 0.912724
vt 0.707535 0.775085
vt 0.707535 0.755999
vt 0.688449 0.755999
vt 0.993836 0.717825
vt 0.707535 0.717825
vt 0.707535 0.736912
vt 0.993836 0.736912
vt 0.993836 0.755999
vt 0.993836 0.698738
vt 0.707535 0.698738
vt 0.993590 0.641114
vt 0.707290 0.641114
vt 0.707290 0.622027
vt 0.993590 0.660201
vt 0.707290 0.660201
vt 0.993590 0.679287
vt 0.707290 0.679288
vt 0.993590 0.698374
vt 0.707290 0.698374
vt 0.688203 0.698374
vt 0.688203 0.679287
vt 0.000277 0.842729
vt 0.000277 0.815201
vt 0.697669 0.815201
vt 0.000329 0.803029
vt 0.697722 0.803029
vt 0.688448 0.679097
vt 0.688448 0.698184
vt 0.707535 0.698184
vt 0.993836 0.679097
vt 0.707535 0.679097
vt 0.993836 0.621837
vt 0.707535 0.621837
vt 0.707535 0.640924
vt 0.993836 0.640924
vt 0.707535 0.660011
vt 0.993836 0.660011
vt 0.735114 0.941354
vt 0.744658 0.912724
vt 0.000329 0.870813
vt 0.697721 0.870813
vt 0.697668 0.882985
vt 0.009821 0.912169
vt 0.009820 0.883539
vt 0.735115 0.883539
vt 0.735115 0.912169
vt 0.744658 0.883539
vt 0.697721 0.843284
vt 0.000278 0.912169
vt 0.000277 0.883539
vt 0.046141 0.510711
vt 0.023293 0.510711
vt 0.023293 0.053753
vt 0.960058 0.510709
vt 0.960058 0.533557
vt 0.046141 0.533558
vt 0.960056 0.053751
vt 0.982904 0.053751
vt 0.982905 0.510709
vt 0.046140 0.053753
vt 0.046140 0.030905
vt 0.960056 0.030904
vt 0.046188 0.053996
vt 0.960103 0.053996
vt 0.960103 0.510953
vt 0.324751 0.951452
vt 0.000277 0.951452
vt 0.000277 0.941908
vt 0.974807 0.941909
vt 0.974807 0.970538
vt 0.650333 0.970539
vt 0.000277 0.980082
vt 0.325305 0.941908
vt 0.974807 0.999723
vt 0.993590 0.698929
vt 0.688203 0.775275
vt 0.688449 0.775085
vt 0.993836 0.775085
vt 0.993590 0.622027
vt 0.697669 0.842730
vt 0.993836 0.698184
vt 0.744658 0.941354
vt 0.000277 0.882985
vt 0.744658 0.912169
vt 0.000329 0.843284
vt 0.046188 0.510953
vt 0.324751 0.941908
vt 0.650333 0.941908
vt 0.324751 0.980082
vn 0.000000 -0.707100 0.707100
vn 0.000000 -0.707100 -0.707100
vn 0.000000 0.000000 -1.000000
vn 0.000000 0.000000 1.000000
vn 0.707100 0.000000 -0.707100
vn 0.577300 -0.577300 -0.577300
vn -0.577300 -0.577300 -0.577300
vn 0.707100 0.000000 0.707100
vn 0.577300 -0.577300 0.577300
vn -0.707100 0.000000 0.707100
vn -0.577300 -0.577300 0.577300
vn -0.707100 0.000000 -0.707100
vn 0.577300 0.577300 -0.577300
vn 0.577300 0.577300 0.577300
vn -0.577300 0.577300 0.577300
vn -0.577300 0.577300 -0.577300
usemtl table.mat
s 1
f 7/1/1 6/2/1 5/3/2
f 4/4/3 8/5/2 5/3/2
f 2/6/4 6/7/1 7/8/1
f 22/9/5 18/10/6 17/11/7
f 23/12/8 19/13/9 18/10/6
f 24/14/10 20/15/11 19/16/9
f 21/17/12 17/11/7 20/15/11
f 17/18/7 18/10/6 19/13/9
f 15/19/8 11/20/9 10/21/6
f 16/22/10 12/23/11 11/20/9
f 31/24/6 30/25/9 29/26/11
f 28/27/12 32/28/7 29/29/11
f 25/30/10 29/29/11 30/25/9
f 26/31/8 30/25/9 31/24/6
f 27/32/5 31/33/6 32/28/7
f 38/34/5 34/35/6 33/36/7
f 39/37/8 35/38/9 34/35/6
f 40/39/10 36/40/11 35/38/9
f 37/41/12 33/42/7 36/40/11
f 34/43/6 35/44/9 36/40/11
f 13/45/12 9/46/7 12/47/11
f 10/48/6 11/49/9 12/47/11
f 47/50/6 46/51/9 45/52/11
f 44/53/12 48/54/7 45/52/11
f 41/55/10 45/56/11 46/57/9
f 42/58/8 46/57/9 47/59/6
f 43/60/5 47/59/6 48/54/7
f 14/61/5 10/21/6 9/62/7
f 55/63/6 54/64/9 53/65/11
f 52/66/12 56/67/7 53/68/11
f 49/69/10 53/68/11 54/70/9
f 50/71/8 54/64/9 55/63/6
f 51/72/5 55/73/6 56/67/7
f 62/74/13 58/75/6 57/76/7
f 63/77/14 59/78/9 58/79/6
f 64/80/15 60/81/11 59/82/9
f 61/83/16 57/84/7 60/85/11
f 58/86/6 59/87/9 60/88/11
f 64/80/15 63/77/14 62/74/13
f 71/89/1 70/90/1 69/91/2
f 68/92/3 72/93/2 69/94/2
f 66/95/4 70/90/1 71/89/1
f 8/5/2 7/1/1 5/3/2
f 1/96/3 4/4/3 5/3/2
f 3/97/4 2/6/4 7/8/1
f 21/17/12 22/9/5 17/11/7
f 22/9/5 23/12/8 18/10/6
f 23/98/8 24/14/10 19/16/9
f 24/14/10 21/17/12 20/15/11
f 20/99/11 17/18/7 19/13/9
f 14/61/5 15/19/8 10/21/6
f 15/19/8 16/22/10 11/20/9
f 32/100/7 31/24/6 29/26/11
f 25/30/10 28/27/12 29/29/11
f 26/31/8 25/30/10 30/25/9
f 27/101/5 26/31/8 31/24/6
f 28/27/12 27/32/5 32/28/7
f 37/102/12 38/34/5 33/36/7
f 38/34/5 39/37/8 34/35/6
f 39/37/8 40/39/10 35/38/9
f 40/39/10 37/41/12 36/40/11
f 33/42/7 34/43/6 36/40/11
f 16/103/10 13/45/12 12/47/11
f 9/46/7 10/48/6 12/47/11
f 48/54/7 47/50/6 45/52/11
f 41/104/10 44/53/12 45/52/11
f 42/58/8 41/55/10 46/57/9
f 43/60/5 42/58/8 47/59/6
f 44/53/12 43/60/5 48/54/7
f 13/105/12 14/61/5 9/62/7
f 56/106/7 55/63/6 53/65/11
f 49/69/10 52/66/12 53/68/11
f 50/107/8 49/69/10 54/70/9
f 51/108/5 50/71/8 55/63/6
f 52/66/12 51/72/5 56/67/7
f 61/83/16 62/74/13 57/76/7
f 62/74/13 63/77/14 58/79/6
f 63/77/14 64/80/15 59/82/9
f 64/80/15 61/83/16 60/85/11
f 57/109/7 58/86/6 60/88/11
f 61/83/16 64/80/15 62/74/13
f 72/110/2 71/89/1 69/91/2
f 65/111/3 68/92/3 69/94/2
f 67/112/4 66/95/4 71/89/1
